<?xml version="1.0" encoding="UTF-8"?>
<svg version="1.1" xmlns="http://www.w3.org/2000/svg" width="1024" height="1024">
<path d="M0 0 C337.92 0 675.84 0 1024 0 C1024 337.92 1024 675.84 1024 1024 C686.08 1024 348.16 1024 0 1024 C0 686.08 0 348.16 0 0 Z " fill="#373738" transform="translate(0,0)"/>
<path d="M0 0 C0.86891373 -0.00861557 1.73782745 -0.01723114 2.6330719 -0.02610779 C5.49925711 -0.04877075 8.36446479 -0.04202809 11.23071289 -0.03295898 C13.22701813 -0.03819463 15.22332089 -0.04447089 17.21961975 -0.05174255 C21.40173998 -0.06214753 25.58351999 -0.05758412 29.765625 -0.04296875 C35.12031882 -0.02578574 40.47393912 -0.04926994 45.82851315 -0.08445835 C49.95072008 -0.10643849 54.07267044 -0.10498927 58.19491768 -0.09669304 C60.16885111 -0.09587377 62.14280342 -0.10273257 64.11668205 -0.11746407 C66.87923666 -0.13492021 69.63986595 -0.12035883 72.40234375 -0.09765625 C73.21448334 -0.10934845 74.02662292 -0.12104065 74.8633728 -0.13308716 C78.90996278 -0.06556024 81.51343891 0.31641006 84.74681091 2.85842896 C87.89715259 6.20381478 88.34773902 8.38602982 89.02368164 12.90454102 C89.19471405 13.97137115 89.19471405 13.97137115 89.36920166 15.05975342 C89.7330471 17.36056466 90.0619436 19.66491078 90.39086914 21.97094727 C90.63512561 23.55184417 90.88204607 25.13233172 91.1315918 26.71240234 C91.62578038 29.85249089 92.10906049 32.99394294 92.58422852 36.13696289 C93.48350177 42.0201602 94.54862009 47.87089321 95.64086914 53.72094727 C95.96133243 55.46440914 96.2816633 57.20789536 96.60180664 58.95141602 C96.82094727 60.13348633 97.04008789 61.31555664 97.26586914 62.53344727 C97.99547852 62.74098633 98.72508789 62.94852539 99.47680664 63.16235352 C110.93901103 66.54441135 122.28977018 70.54105396 133.01977539 75.83422852 C133.78515625 76.21095703 134.55053711 76.58768555 135.33911133 76.97583008 C136.80028594 77.706736 138.25335858 78.45413668 139.6965332 79.2199707 C142.56130455 80.66287316 144.54739308 81.65562182 147.76977539 81.10766602 C151.3168907 78.87059642 154.60113508 76.38104753 157.89086914 73.78344727 C159.40011716 72.61006756 160.9105814 71.4382509 162.42211914 70.26782227 C163.20973633 69.65745117 163.99735352 69.04708008 164.80883789 68.41821289 C168.96093613 65.23317728 173.17389648 62.13180024 177.39086914 59.03344727 C178.17155762 58.45884766 178.95224609 57.88424805 179.7565918 57.29223633 C181.2365366 56.20530724 182.72153493 55.12521623 184.2121582 54.05297852 C185.53816813 53.07186988 186.83541348 52.05004993 188.09301758 50.98266602 C191.30513444 48.34615178 192.92086013 47.52777815 197.12890625 47.59692383 C201.57540463 48.30407471 203.77314395 50.22821053 206.90258789 53.48657227 C207.38991898 53.98380798 207.87725006 54.4810437 208.37934875 54.99334717 C209.92138969 56.57425659 211.43725645 58.17769668 212.95336914 59.78344727 C213.98100657 60.84625223 215.01029164 61.90746667 216.04125977 62.96704102 C217.9427369 64.92537079 219.83151481 66.89340376 221.71386719 68.87036133 C224.19670184 71.46126924 226.72125079 74.00336037 229.26586914 76.53344727 C230.34288086 77.62786133 230.34288086 77.62786133 231.44165039 78.74438477 C235.66709092 83.02389858 239.9812762 87.10653778 244.53540039 91.03344727 C246.5528551 92.78221162 248.4907241 94.53640909 250.26586914 96.53344727 C250.26586914 97.19344727 250.26586914 97.85344727 250.26586914 98.53344727 C250.85464844 98.80205566 251.44342773 99.07066406 252.05004883 99.34741211 C255.75417713 101.33007576 258.51760863 104.25159714 261.51586914 107.15844727 C262.16555664 107.75012695 262.81524414 108.34180664 263.48461914 108.95141602 C266.55673894 111.93963338 268.69799611 114.1834777 268.95336914 118.58813477 C268.55547588 122.8109045 266.61421707 125.78174487 264.01586914 129.03344727 C263.56912842 129.62456299 263.1223877 130.21567871 262.66210938 130.82470703 C261.70511274 132.0879954 260.73993575 133.34512189 259.76733398 134.59643555 C258.26231618 136.53803087 256.78568752 138.49811306 255.31665039 140.46704102 C254.82479248 141.12591309 254.33293457 141.78478516 253.82617188 142.46362305 C253.08475952 143.45724854 253.08475952 143.45724854 252.32836914 144.47094727 C249.26613426 148.56954651 246.18422313 152.64670727 243.02368164 156.67016602 C242.00010618 157.99948688 240.97666365 159.32891012 239.95336914 160.65844727 C239.46682861 161.26164795 238.98028809 161.86484863 238.47900391 162.48632812 C236.35353665 165.27842453 235.26788862 167.01107521 235.25415039 170.56469727 C236.4147688 173.97037292 237.94236878 176.80415499 239.76586914 179.90844727 C243.62019369 186.75790319 246.51026229 193.86788594 249.26586914 201.22094727 C249.66354492 202.27266113 250.0612207 203.324375 250.47094727 204.40795898 C253.26586914 212.01019578 253.26586914 212.01019578 253.26586914 216.53344727 C254.40024414 216.65848633 255.53461914 216.78352539 256.70336914 216.91235352 C263.45875264 217.66309828 270.21159567 218.43621542 276.96459961 219.20800781 C279.98274662 219.55285656 283.00095019 219.89720428 286.01928711 220.24038696 C287.51474536 220.4120632 289.0098694 220.58667654 290.50463867 220.76425171 C294.33491813 221.21670399 298.1598918 221.61798485 302.00415039 221.93237305 C302.77178711 222.00267227 303.53942383 222.0729715 304.33032227 222.145401 C305.7845165 222.27765521 307.24039681 222.39294156 308.69750977 222.48777771 C312.12599934 222.8185642 314.15907099 223.455245 316.94981384 225.49874878 C320.14950652 229.69126634 319.96505341 232.80179783 319.89697266 237.94189453 C319.90770561 239.35249649 319.90770561 239.35249649 319.9186554 240.79159546 C319.93554125 243.89484478 319.91614147 246.99664941 319.89477539 250.09985352 C319.89560403 252.25789001 319.8980632 254.41592644 319.90208435 256.57395935 C319.90494219 261.09409611 319.89024074 265.61373731 319.86279297 270.13378906 C319.82869022 275.93023821 319.83473555 281.72580238 319.85345554 287.52229404 C319.86401849 291.97726328 319.85509439 296.4320262 319.84007072 300.88697624 C319.83488467 303.02442754 319.83537582 305.16190035 319.84161568 307.29934883 C319.84706004 310.28483635 319.82671795 313.26905191 319.79931641 316.25439453 C319.80910522 317.58157249 319.80910522 317.58157249 319.8190918 318.93556213 C319.72634084 324.87221079 319.72634084 324.87221079 317.52033997 328.0400238 C315.12578594 329.62624223 313.48312089 330.2483946 310.66088867 330.70727539 C309.77983459 330.85430908 308.89878052 331.00134277 307.99102783 331.15283203 C303.64816222 331.75938783 299.30676853 332.29540332 294.94555664 332.75219727 C293.00935501 332.964403 291.07315721 333.17664362 289.13696289 333.38891602 C286.13111087 333.71295601 283.12506756 334.03513491 280.11889648 334.35620117 C277.1855944 334.67108081 274.25307832 334.99264273 271.32055664 335.31469727 C270.43077118 335.40746948 269.54098572 335.5002417 268.62423706 335.5958252 C263.35549437 336.17671523 258.29376355 336.81321257 253.26586914 338.53344727 C251.6116119 340.46602237 251.6116119 340.46602237 251.01586914 342.97875977 C250.72156006 343.88368164 250.42725098 344.78860352 250.12402344 345.72094727 C249.84083252 346.69032227 249.5576416 347.65969727 249.26586914 348.65844727 C248.61356534 350.66362294 247.95331808 352.66623085 247.28540039 354.66625977 C246.95620605 355.65916016 246.62701172 356.65206055 246.2878418 357.67504883 C243.54891662 365.3356642 239.55703918 372.67463456 235.41040039 379.65844727 C234.02788112 382.39348316 234.02788112 382.39348316 234.68774414 384.86938477 C237.03684712 388.8349497 239.7410429 392.48193378 242.51586914 396.15844727 C243.77908773 397.85100802 245.0421024 399.54372099 246.30493164 401.23657227 C246.95623047 402.10604492 247.6075293 402.97551758 248.27856445 403.87133789 C252.10020553 408.99064677 255.86792495 414.14983584 259.64575195 419.30151367 C260.19328125 420.04578613 260.74081055 420.79005859 261.30493164 421.55688477 C261.81515869 422.25201172 262.32538574 422.94713867 262.85107422 423.66333008 C264.05254722 425.25147213 265.33333128 426.77911382 266.62915039 428.29125977 C268.43397597 430.76374159 268.83369923 432.00595633 268.82836914 435.03344727 C268.8502832 435.76563477 268.87219727 436.49782227 268.89477539 437.25219727 C267.96775717 440.6147975 265.76603894 442.12318673 263.26586914 444.53344727 C262.29565462 445.5012157 261.32786694 446.47142194 260.36225891 447.44378662 C259.84501251 447.96247818 259.32776611 448.48116974 258.79484558 449.01557922 C258.245569 449.56642685 257.69629242 450.11727448 257.13037109 450.68481445 C251.121936 456.70953907 245.1109951 462.73175706 239.09859943 468.75252914 C235.46577998 472.39059008 231.83391091 476.02958988 228.20410156 479.6706543 C224.6862559 483.19933448 221.16600007 486.72559333 217.64403343 490.25016022 C216.30228929 491.59375494 214.96142698 492.93823087 213.62145424 494.28359222 C211.75433441 496.15793164 209.88414875 498.02915831 208.01318359 499.8996582 C207.45783432 500.45860275 206.90248505 501.0175473 206.33030701 501.59342957 C201.64650661 506.26457505 201.64650661 506.26457505 197.73852539 507.02563477 C192.31759238 506.25731355 188.917872 503.00090163 184.70336914 499.65844727 C183.81584961 498.97314941 182.92833008 498.28785156 182.01391602 497.58178711 C179.42180041 495.57746242 176.84358059 493.55623832 174.26586914 491.53344727 C172.45720736 490.13694701 170.64414795 488.74639411 168.83007812 487.35693359 C167.2983658 486.18334599 165.77035587 485.00493121 164.24243164 483.82641602 C161.04837297 481.365901 157.85182538 478.90936458 154.64086914 476.47094727 C153.67922852 475.7374707 152.71758789 475.00399414 151.72680664 474.24829102 C149.30771209 472.39021474 149.30771209 472.39021474 146.26586914 471.53344727 C143.48662981 472.74366308 140.83317163 474.02616052 138.14086914 475.40844727 C130.25018964 479.3091433 122.23851518 482.56467404 113.95336914 485.53344727 C112.35307861 486.1113501 112.35307861 486.1113501 110.72045898 486.70092773 C105.88642748 488.40664918 101.35276421 489.78736311 96.26586914 490.53344727 C96.22123535 491.16508789 96.17660156 491.79672852 96.13061523 492.44750977 C95.50908687 500.23695778 94.27264234 507.84656956 92.89086914 515.53344727 C91.00664376 525.99408104 91.00664376 525.99408104 89.44555664 536.50610352 C89.26839111 537.81417969 89.26839111 537.81417969 89.08764648 539.14868164 C88.87976196 540.72973964 88.68876512 542.31315157 88.51831055 543.89868164 C88.06976303 547.23074894 87.55798767 549.2128231 85.27139282 551.72254944 C81.159325 554.20016581 77.92336174 554.08897517 73.20874023 554.03515625 C72.30574692 554.04055923 71.4027536 554.04596222 70.47239685 554.05152893 C67.49436447 554.06401372 64.51729911 554.04752934 61.53930664 554.02954102 C59.46855621 554.02969598 57.39780548 554.03118457 55.32705688 554.03395081 C50.99110058 554.0353346 46.65547515 554.02277771 42.31958008 554 C36.75631264 553.97158012 31.1935935 553.97436264 25.63028526 553.98709011 C21.35638731 553.99403689 17.0826166 553.98627004 12.80873489 553.97383308 C10.7569795 553.96931135 8.70521048 553.96898806 6.65345383 553.97289848 C3.79008598 553.97580178 0.92748059 553.95934725 -1.93579102 553.9375 C-2.78676865 553.94200165 -3.63774628 553.9465033 -4.51451111 553.95114136 C-10.30205508 553.87759449 -10.30205508 553.87759449 -12.42250633 552.18866062 C-14.40761288 549.68354212 -14.65886359 547.22225093 -15.23413086 544.09594727 C-15.35667236 543.44053955 -15.47921387 542.78513184 -15.60546875 542.10986328 C-16.73306811 535.92065962 -17.6347276 529.69546372 -18.53222656 523.46948242 C-19.65000123 515.81079122 -21.02508352 508.20776621 -22.46435547 500.60351562 C-22.62943604 499.7231665 -22.7945166 498.84281738 -22.96459961 497.93579102 C-23.1130835 497.1571167 -23.26156738 496.37844238 -23.41455078 495.57617188 C-23.73413086 493.53344727 -23.73413086 493.53344727 -23.73413086 490.53344727 C-24.28456055 490.40969727 -24.83499023 490.28594727 -25.40209961 490.15844727 C-39.73220953 486.60369132 -53.911503 481.0730323 -66.76025391 473.79638672 C-68.75936373 472.66581035 -68.75936373 472.66581035 -71.73413086 471.53344727 C-74.72162643 472.67318113 -77.16231228 474.47212381 -79.71850586 476.36938477 C-80.48106689 476.93326904 -81.24362793 477.49715332 -82.02929688 478.078125 C-83.2444397 478.98413452 -83.2444397 478.98413452 -84.48413086 479.90844727 C-85.32451904 480.53114502 -86.16490723 481.15384277 -87.03076172 481.79541016 C-91.79395613 485.32930621 -96.54054504 488.8850019 -101.27832031 492.45288086 C-103.85625935 494.3918702 -106.44152974 496.32095949 -109.02709961 498.24975586 C-110.59669272 499.43009347 -112.15060161 500.63121209 -113.70288086 501.83422852 C-114.55881836 502.4774707 -115.41475586 503.12071289 -116.29663086 503.78344727 C-116.99916992 504.32485352 -117.70170898 504.86625977 -118.42553711 505.42407227 C-121.73979695 507.01671151 -124.0858325 506.8946481 -127.73413086 506.53344727 C-130.53416443 504.56846619 -130.53416443 504.56846619 -133.26708984 501.77929688 C-133.77220093 501.27360168 -134.27731201 500.76790649 -134.79772949 500.24688721 C-136.45890856 498.5757584 -138.09400999 496.88133975 -139.73022461 495.18579102 C-140.88771023 494.01268887 -142.04684174 492.84120864 -143.20753479 491.67127991 C-146.259689 488.58676384 -149.2907051 485.48229239 -152.31726074 482.37268066 C-155.9770732 478.61939133 -159.65953363 474.88835418 -163.34034061 471.15567112 C-166.20917469 468.24600671 -169.07403477 465.33281509 -171.92662048 462.4072113 C-176.81650188 457.40382806 -181.71177936 452.48012381 -187.07484436 447.97486877 C-191.1343278 444.44839715 -194.20453253 441.46172838 -195.64819336 436.20532227 C-195.75327308 431.71555234 -194.37036858 429.63518673 -191.67163086 426.28344727 C-190.74314731 425.06086554 -189.81476778 423.83820481 -188.88647461 422.61547852 C-188.37971191 421.96272949 -187.87294922 421.30998047 -187.35083008 420.63745117 C-185.02163493 417.60619116 -182.77910746 414.51362609 -180.52612305 411.42553711 C-176.63744209 406.09899782 -172.74548801 400.77945605 -168.65209961 395.60766602 C-168.18739258 395.01864502 -167.72268555 394.42962402 -167.24389648 393.82275391 C-166.01355083 392.27414491 -164.77080832 390.73540732 -163.52709961 389.19750977 C-161.617612 386.36031902 -160.75453755 384.94646635 -160.73413086 381.53344727 C-161.81677165 378.9075299 -162.93752622 376.56911129 -164.29663086 374.09594727 C-165.04579407 372.66656224 -165.79183977 371.23553936 -166.53491211 369.80297852 C-166.90825684 369.08706543 -167.28160156 368.37115234 -167.66625977 367.63354492 C-178.73413086 345.86723785 -178.73413086 345.86723785 -178.73413086 337.53344727 C-179.46374023 337.48373779 -180.19334961 337.43402832 -180.94506836 337.3828125 C-189.78275643 336.74521695 -198.5769608 335.84523294 -207.3815918 334.85888672 C-209.73048631 334.59635461 -212.07992058 334.33911672 -214.42944336 334.08227539 C-218.17536685 333.66944628 -221.91812414 333.23457823 -225.65942383 332.78179932 C-227.64279687 332.54438037 -229.6278963 332.32151908 -231.61303711 332.09936523 C-233.34360352 331.87917725 -233.34360352 331.87917725 -235.10913086 331.65454102 C-236.60573242 331.47362915 -236.60573242 331.47362915 -238.13256836 331.2890625 C-241.53308621 330.30139332 -242.62164194 329.40257119 -244.73413086 326.53344727 C-245.33655296 323.40887301 -245.28040064 320.32068884 -245.25170898 317.14672852 C-245.2622229 315.72171524 -245.2622229 315.72171524 -245.27294922 314.26791382 C-245.29055748 311.12696116 -245.27889613 307.98690913 -245.26538086 304.84594727 C-245.26807495 302.66406074 -245.27195668 300.48217538 -245.27697754 298.30029297 C-245.28287644 293.72717866 -245.27429678 289.15437683 -245.25561523 284.58129883 C-245.23282576 278.71646757 -245.2459467 272.85236848 -245.26990509 266.98756409 C-245.2843523 262.48199944 -245.27976196 257.97660867 -245.26939392 253.47103882 C-245.26672367 251.30846063 -245.27000683 249.1458667 -245.27931213 246.98330688 C-245.28945973 243.96183396 -245.27400111 240.94155025 -245.25170898 237.92016602 C-245.25980591 237.02445892 -245.26790283 236.12875183 -245.27624512 235.2059021 C-245.19332639 229.14609763 -245.19332639 229.14609763 -242.82804871 225.99038696 C-240.605721 224.4441002 -239.23213705 223.90297359 -236.56616211 223.55688477 C-235.7642041 223.44465576 -234.96224609 223.33242676 -234.13598633 223.21679688 C-233.28149902 223.1150415 -232.42701172 223.01328613 -231.54663086 222.90844727 C-230.6560498 222.78928955 -229.76546875 222.67013184 -228.84790039 222.54736328 C-226.14526418 222.19106951 -223.4405964 221.85923019 -220.73413086 221.53344727 C-219.24583441 221.34737085 -217.75755209 221.16118146 -216.26928711 220.97485352 C-212.81752846 220.55140357 -209.36307305 220.15802515 -205.90649414 219.77612305 C-203.56548736 219.51460802 -201.22600543 219.2414333 -198.88647461 218.96704102 C-197.27321867 218.7806239 -195.659938 218.59442069 -194.04663086 218.40844727 C-192.93263916 218.27684204 -192.93263916 218.27684204 -191.79614258 218.14257812 C-187.75286074 217.68464758 -183.80275021 217.44374542 -179.73413086 217.53344727 C-179.64131836 216.58083008 -179.54850586 215.62821289 -179.45288086 214.64672852 C-178.74590136 209.75310478 -177.01240293 205.31364994 -175.23413086 200.72094727 C-174.71314819 199.35292969 -174.71314819 199.35292969 -174.18164062 197.95727539 C-171.39777819 190.82366653 -168.14564563 184.00876326 -164.44116211 177.30761719 C-162.27149273 173.2834899 -162.27149273 173.2834899 -161.77319336 168.81079102 C-162.90478611 166.1290082 -164.27048669 164.30311062 -166.17163086 162.09594727 C-169.43798294 158.16937509 -172.49032301 154.15091766 -175.42163086 149.97094727 C-179.93328205 143.56384746 -184.65614698 137.33374504 -189.44384766 131.13085938 C-189.97276611 130.44515869 -190.50168457 129.75945801 -191.04663086 129.05297852 C-191.51713867 128.44558838 -191.98764648 127.83819824 -192.47241211 127.21240234 C-194.32354185 124.74912463 -195.65891974 122.89278928 -196.29663086 119.84594727 C-194.71137264 110.51053776 -181.78756618 101.44210951 -175.21459961 94.88110352 C-173.90645501 93.57228432 -172.59845881 92.26331679 -171.29060364 90.95420837 C-168.56482218 88.22696042 -165.83725958 85.50151009 -163.10839844 82.77734375 C-159.60667914 79.28135525 -156.10951437 75.7808503 -152.61364269 72.27901554 C-149.9209355 69.58270331 -147.22586177 66.88876674 -144.53005409 64.19555473 C-143.23868681 62.90485512 -141.94806357 61.61341063 -140.65819359 60.32121468 C-138.86323695 58.52372882 -137.06512437 56.72946185 -135.26611328 54.93603516 C-134.73260757 54.40050522 -134.19910187 53.86497528 -133.64942932 53.31321716 C-130.29333793 49.97647601 -128.36781325 48.36857498 -123.63647461 48.08422852 C-117.7421104 48.16542459 -114.60822386 50.98936735 -110.29663086 54.72094727 C-108.73006321 56.00908006 -107.16097783 57.29415599 -105.58959961 58.57641602 C-104.79215332 59.23432129 -103.99470703 59.89222656 -103.1730957 60.57006836 C-99.26505667 63.71605934 -95.19601129 66.62586141 -91.10913086 69.53344727 C-89.67912291 70.55383166 -88.249423 71.57464792 -86.82006836 72.59594727 C-86.14427734 73.07290039 -85.46848633 73.54985352 -84.7722168 74.04125977 C-83.35454177 75.07921254 -81.96860768 76.16135226 -80.61010742 77.27563477 C-79.92142578 77.83508789 -79.23274414 78.39454102 -78.52319336 78.97094727 C-77.91427246 79.4852832 -77.30535156 79.99961914 -76.67797852 80.52954102 C-73.97558264 81.92520189 -72.59606101 81.42196489 -69.73413086 80.53344727 C-68.25100156 79.90667925 -66.79059044 79.22392955 -65.35522461 78.49438477 C-64.52571289 78.0818042 -63.69620117 77.66922363 -62.84155273 77.24414062 C-61.51994141 76.58297241 -61.51994141 76.58297241 -60.17163086 75.90844727 C-48.61226704 70.25586955 -36.44809456 64.9159311 -23.73413086 62.53344727 C-23.57332031 61.52258057 -23.41250977 60.51171387 -23.24682617 59.47021484 C-21.68798816 49.68966321 -20.10151534 39.91393461 -18.49047852 30.1418457 C-18.03178115 27.35713689 -17.58118414 24.57167418 -17.13793945 21.78442383 C-16.6689302 18.84281903 -16.17560354 15.9067236 -15.67163086 12.97094727 C-15.54626953 12.14763916 -15.4209082 11.32433105 -15.29174805 10.47607422 C-14.68328078 7.08441905 -14.06695615 4.89432026 -11.70799255 2.33656311 C-7.69620509 -0.09586929 -4.6064504 -0.03692271 0 0 Z " fill="#373739" transform="translate(474.734130859375,217.466552734375)"/>
<path d="M0 0 C17.12892197 13.55772351 29.31704774 29.50594899 38.3125 49.3125 C38.72242188 50.20582031 39.13234375 51.09914063 39.5546875 52.01953125 C51.40833339 79.72398269 49.68049494 111.4593544 39.3125 139.3125 C37.00889111 144.8406866 34.26674016 150.10769296 31.3125 155.3125 C30.48105469 156.78589844 30.48105469 156.78589844 29.6328125 158.2890625 C13.28865861 185.42505006 -13.47298712 203.79045791 -43.6875 212.3125 C-44.7496875 212.6321875 -45.811875 212.951875 -46.90625 213.28125 C-77.64670661 221.03818765 -111.03858351 214.09270134 -137.99609375 198.34033203 C-146.34157288 193.26895975 -153.60332612 186.99254315 -160.6875 180.3125 C-161.35265625 179.71179688 -162.0178125 179.11109375 -162.703125 178.4921875 C-183.8984861 158.58922647 -195.83733104 128.95057668 -196.93359375 100.19140625 C-197.64862633 66.44058605 -186.18147424 37.96174459 -163.5703125 12.97265625 C-121.35727692 -31.01858412 -48.69773549 -36.8976692 0 0 Z " fill="#373739" transform="translate(586.6875,397.6875)"/>
<path d="M0 0 C0.86891373 -0.00861557 1.73782745 -0.01723114 2.6330719 -0.02610779 C5.49925711 -0.04877075 8.36446479 -0.04202809 11.23071289 -0.03295898 C13.22701813 -0.03819463 15.22332089 -0.04447089 17.21961975 -0.05174255 C21.40173998 -0.06214753 25.58351999 -0.05758412 29.765625 -0.04296875 C35.12031882 -0.02578574 40.47393912 -0.04926994 45.82851315 -0.08445835 C49.95072008 -0.10643849 54.07267044 -0.10498927 58.19491768 -0.09669304 C60.16885111 -0.09587377 62.14280342 -0.10273257 64.11668205 -0.11746407 C66.87923666 -0.13492021 69.63986595 -0.12035883 72.40234375 -0.09765625 C73.21448334 -0.10934845 74.02662292 -0.12104065 74.8633728 -0.13308716 C78.90996278 -0.06556024 81.51343891 0.31641006 84.74681091 2.85842896 C87.89715259 6.20381478 88.34773902 8.38602982 89.02368164 12.90454102 C89.19471405 13.97137115 89.19471405 13.97137115 89.36920166 15.05975342 C89.7330471 17.36056466 90.0619436 19.66491078 90.39086914 21.97094727 C90.63512561 23.55184417 90.88204607 25.13233172 91.1315918 26.71240234 C91.62578038 29.85249089 92.10906049 32.99394294 92.58422852 36.13696289 C93.48350177 42.0201602 94.54862009 47.87089321 95.64086914 53.72094727 C95.96133243 55.46440914 96.2816633 57.20789536 96.60180664 58.95141602 C96.82094727 60.13348633 97.04008789 61.31555664 97.26586914 62.53344727 C97.99547852 62.74098633 98.72508789 62.94852539 99.47680664 63.16235352 C110.93901103 66.54441135 122.28977018 70.54105396 133.01977539 75.83422852 C133.78515625 76.21095703 134.55053711 76.58768555 135.33911133 76.97583008 C136.80028594 77.706736 138.25335858 78.45413668 139.6965332 79.2199707 C142.56130455 80.66287316 144.54739308 81.65562182 147.76977539 81.10766602 C151.3168907 78.87059642 154.60113508 76.38104753 157.89086914 73.78344727 C159.40011716 72.61006756 160.9105814 71.4382509 162.42211914 70.26782227 C163.20973633 69.65745117 163.99735352 69.04708008 164.80883789 68.41821289 C168.96093613 65.23317728 173.17389648 62.13180024 177.39086914 59.03344727 C178.17155762 58.45884766 178.95224609 57.88424805 179.7565918 57.29223633 C181.2365366 56.20530724 182.72153493 55.12521623 184.2121582 54.05297852 C185.53816813 53.07186988 186.83541348 52.05004993 188.09301758 50.98266602 C191.30513444 48.34615178 192.92086013 47.52777815 197.12890625 47.59692383 C201.57540463 48.30407471 203.77314395 50.22821053 206.90258789 53.48657227 C207.38991898 53.98380798 207.87725006 54.4810437 208.37934875 54.99334717 C209.92138969 56.57425659 211.43725645 58.17769668 212.95336914 59.78344727 C213.98100657 60.84625223 215.01029164 61.90746667 216.04125977 62.96704102 C217.9427369 64.92537079 219.83151481 66.89340376 221.71386719 68.87036133 C224.19670184 71.46126924 226.72125079 74.00336037 229.26586914 76.53344727 C230.34288086 77.62786133 230.34288086 77.62786133 231.44165039 78.74438477 C235.66709092 83.02389858 239.9812762 87.10653778 244.53540039 91.03344727 C246.5528551 92.78221162 248.4907241 94.53640909 250.26586914 96.53344727 C250.26586914 97.19344727 250.26586914 97.85344727 250.26586914 98.53344727 C250.85464844 98.80205566 251.44342773 99.07066406 252.05004883 99.34741211 C255.75417713 101.33007576 258.51760863 104.25159714 261.51586914 107.15844727 C262.16555664 107.75012695 262.81524414 108.34180664 263.48461914 108.95141602 C266.55673894 111.93963338 268.69799611 114.1834777 268.95336914 118.58813477 C268.55547588 122.8109045 266.61421707 125.78174487 264.01586914 129.03344727 C263.56912842 129.62456299 263.1223877 130.21567871 262.66210938 130.82470703 C261.70511274 132.0879954 260.73993575 133.34512189 259.76733398 134.59643555 C258.26231618 136.53803087 256.78568752 138.49811306 255.31665039 140.46704102 C254.82479248 141.12591309 254.33293457 141.78478516 253.82617188 142.46362305 C253.08475952 143.45724854 253.08475952 143.45724854 252.32836914 144.47094727 C249.26613426 148.56954651 246.18422313 152.64670727 243.02368164 156.67016602 C242.00010618 157.99948688 240.97666365 159.32891012 239.95336914 160.65844727 C239.46682861 161.26164795 238.98028809 161.86484863 238.47900391 162.48632812 C236.35353665 165.27842453 235.26788862 167.01107521 235.25415039 170.56469727 C236.4147688 173.97037292 237.94236878 176.80415499 239.76586914 179.90844727 C243.62019369 186.75790319 246.51026229 193.86788594 249.26586914 201.22094727 C249.66354492 202.27266113 250.0612207 203.324375 250.47094727 204.40795898 C253.26586914 212.01019578 253.26586914 212.01019578 253.26586914 216.53344727 C254.40024414 216.65848633 255.53461914 216.78352539 256.70336914 216.91235352 C263.45875264 217.66309828 270.21159567 218.43621542 276.96459961 219.20800781 C279.98274662 219.55285656 283.00095019 219.89720428 286.01928711 220.24038696 C287.51474536 220.4120632 289.0098694 220.58667654 290.50463867 220.76425171 C294.33491813 221.21670399 298.1598918 221.61798485 302.00415039 221.93237305 C302.77178711 222.00267227 303.53942383 222.0729715 304.33032227 222.145401 C305.7845165 222.27765521 307.24039681 222.39294156 308.69750977 222.48777771 C312.12599934 222.8185642 314.15907099 223.455245 316.94981384 225.49874878 C320.14950652 229.69126634 319.96505341 232.80179783 319.89697266 237.94189453 C319.90770561 239.35249649 319.90770561 239.35249649 319.9186554 240.79159546 C319.93554125 243.89484478 319.91614147 246.99664941 319.89477539 250.09985352 C319.89560403 252.25789001 319.8980632 254.41592644 319.90208435 256.57395935 C319.90494219 261.09409611 319.89024074 265.61373731 319.86279297 270.13378906 C319.82869022 275.93023821 319.83473555 281.72580238 319.85345554 287.52229404 C319.86401849 291.97726328 319.85509439 296.4320262 319.84007072 300.88697624 C319.83488467 303.02442754 319.83537582 305.16190035 319.84161568 307.29934883 C319.84706004 310.28483635 319.82671795 313.26905191 319.79931641 316.25439453 C319.80910522 317.58157249 319.80910522 317.58157249 319.8190918 318.93556213 C319.72634084 324.87221079 319.72634084 324.87221079 317.52033997 328.0400238 C315.12578594 329.62624223 313.48312089 330.2483946 310.66088867 330.70727539 C309.77983459 330.85430908 308.89878052 331.00134277 307.99102783 331.15283203 C303.64816222 331.75938783 299.30676853 332.29540332 294.94555664 332.75219727 C293.00935501 332.964403 291.07315721 333.17664362 289.13696289 333.38891602 C286.13111087 333.71295601 283.12506756 334.03513491 280.11889648 334.35620117 C277.1855944 334.67108081 274.25307832 334.99264273 271.32055664 335.31469727 C270.43077118 335.40746948 269.54098572 335.5002417 268.62423706 335.5958252 C263.35549437 336.17671523 258.29376355 336.81321257 253.26586914 338.53344727 C251.6116119 340.46602237 251.6116119 340.46602237 251.01586914 342.97875977 C250.72156006 343.88368164 250.42725098 344.78860352 250.12402344 345.72094727 C249.84083252 346.69032227 249.5576416 347.65969727 249.26586914 348.65844727 C248.61356534 350.66362294 247.95331808 352.66623085 247.28540039 354.66625977 C246.95620605 355.65916016 246.62701172 356.65206055 246.2878418 357.67504883 C243.54891662 365.3356642 239.55703918 372.67463456 235.41040039 379.65844727 C234.02788112 382.39348316 234.02788112 382.39348316 234.68774414 384.86938477 C237.03684712 388.8349497 239.7410429 392.48193378 242.51586914 396.15844727 C243.77908773 397.85100802 245.0421024 399.54372099 246.30493164 401.23657227 C246.95623047 402.10604492 247.6075293 402.97551758 248.27856445 403.87133789 C252.10020553 408.99064677 255.86792495 414.14983584 259.64575195 419.30151367 C260.19328125 420.04578613 260.74081055 420.79005859 261.30493164 421.55688477 C261.81515869 422.25201172 262.32538574 422.94713867 262.85107422 423.66333008 C264.05254722 425.25147213 265.33333128 426.77911382 266.62915039 428.29125977 C268.43397597 430.76374159 268.83369923 432.00595633 268.82836914 435.03344727 C268.8502832 435.76563477 268.87219727 436.49782227 268.89477539 437.25219727 C267.96775717 440.6147975 265.76603894 442.12318673 263.26586914 444.53344727 C262.29565462 445.5012157 261.32786694 446.47142194 260.36225891 447.44378662 C259.84501251 447.96247818 259.32776611 448.48116974 258.79484558 449.01557922 C258.245569 449.56642685 257.69629242 450.11727448 257.13037109 450.68481445 C251.121936 456.70953907 245.1109951 462.73175706 239.09859943 468.75252914 C235.46577998 472.39059008 231.83391091 476.02958988 228.20410156 479.6706543 C224.6862559 483.19933448 221.16600007 486.72559333 217.64403343 490.25016022 C216.30228929 491.59375494 214.96142698 492.93823087 213.62145424 494.28359222 C211.75433441 496.15793164 209.88414875 498.02915831 208.01318359 499.8996582 C207.45783432 500.45860275 206.90248505 501.0175473 206.33030701 501.59342957 C201.64650661 506.26457505 201.64650661 506.26457505 197.73852539 507.02563477 C192.31759238 506.25731355 188.917872 503.00090163 184.70336914 499.65844727 C183.81584961 498.97314941 182.92833008 498.28785156 182.01391602 497.58178711 C179.42180041 495.57746242 176.84358059 493.55623832 174.26586914 491.53344727 C172.45720736 490.13694701 170.64414795 488.74639411 168.83007812 487.35693359 C167.2983658 486.18334599 165.77035587 485.00493121 164.24243164 483.82641602 C161.04837297 481.365901 157.85182538 478.90936458 154.64086914 476.47094727 C153.67922852 475.7374707 152.71758789 475.00399414 151.72680664 474.24829102 C149.30771209 472.39021474 149.30771209 472.39021474 146.26586914 471.53344727 C143.48662981 472.74366308 140.83317163 474.02616052 138.14086914 475.40844727 C130.25018964 479.3091433 122.23851518 482.56467404 113.95336914 485.53344727 C112.35307861 486.1113501 112.35307861 486.1113501 110.72045898 486.70092773 C105.88642748 488.40664918 101.35276421 489.78736311 96.26586914 490.53344727 C96.22123535 491.16508789 96.17660156 491.79672852 96.13061523 492.44750977 C95.50908687 500.23695778 94.27264234 507.84656956 92.89086914 515.53344727 C91.00664376 525.99408104 91.00664376 525.99408104 89.44555664 536.50610352 C89.26839111 537.81417969 89.26839111 537.81417969 89.08764648 539.14868164 C88.87976196 540.72973964 88.68876512 542.31315157 88.51831055 543.89868164 C88.06976303 547.23074894 87.55798767 549.2128231 85.27139282 551.72254944 C81.159325 554.20016581 77.92336174 554.08897517 73.20874023 554.03515625 C72.30574692 554.04055923 71.4027536 554.04596222 70.47239685 554.05152893 C67.49436447 554.06401372 64.51729911 554.04752934 61.53930664 554.02954102 C59.46855621 554.02969598 57.39780548 554.03118457 55.32705688 554.03395081 C50.99110058 554.0353346 46.65547515 554.02277771 42.31958008 554 C36.75631264 553.97158012 31.1935935 553.97436264 25.63028526 553.98709011 C21.35638731 553.99403689 17.0826166 553.98627004 12.80873489 553.97383308 C10.7569795 553.96931135 8.70521048 553.96898806 6.65345383 553.97289848 C3.79008598 553.97580178 0.92748059 553.95934725 -1.93579102 553.9375 C-2.78676865 553.94200165 -3.63774628 553.9465033 -4.51451111 553.95114136 C-10.30205508 553.87759449 -10.30205508 553.87759449 -12.42250633 552.18866062 C-14.40761288 549.68354212 -14.65886359 547.22225093 -15.23413086 544.09594727 C-15.35667236 543.44053955 -15.47921387 542.78513184 -15.60546875 542.10986328 C-16.73306811 535.92065962 -17.6347276 529.69546372 -18.53222656 523.46948242 C-19.65000123 515.81079122 -21.02508352 508.20776621 -22.46435547 500.60351562 C-22.62943604 499.7231665 -22.7945166 498.84281738 -22.96459961 497.93579102 C-23.1130835 497.1571167 -23.26156738 496.37844238 -23.41455078 495.57617188 C-23.73413086 493.53344727 -23.73413086 493.53344727 -23.73413086 490.53344727 C-24.28456055 490.40969727 -24.83499023 490.28594727 -25.40209961 490.15844727 C-39.73220953 486.60369132 -53.911503 481.0730323 -66.76025391 473.79638672 C-68.75936373 472.66581035 -68.75936373 472.66581035 -71.73413086 471.53344727 C-74.72162643 472.67318113 -77.16231228 474.47212381 -79.71850586 476.36938477 C-80.48106689 476.93326904 -81.24362793 477.49715332 -82.02929688 478.078125 C-83.2444397 478.98413452 -83.2444397 478.98413452 -84.48413086 479.90844727 C-85.32451904 480.53114502 -86.16490723 481.15384277 -87.03076172 481.79541016 C-91.79395613 485.32930621 -96.54054504 488.8850019 -101.27832031 492.45288086 C-103.85625935 494.3918702 -106.44152974 496.32095949 -109.02709961 498.24975586 C-110.59669272 499.43009347 -112.15060161 500.63121209 -113.70288086 501.83422852 C-114.55881836 502.4774707 -115.41475586 503.12071289 -116.29663086 503.78344727 C-116.99916992 504.32485352 -117.70170898 504.86625977 -118.42553711 505.42407227 C-121.73979695 507.01671151 -124.0858325 506.8946481 -127.73413086 506.53344727 C-130.53416443 504.56846619 -130.53416443 504.56846619 -133.26708984 501.77929688 C-133.77220093 501.27360168 -134.27731201 500.76790649 -134.79772949 500.24688721 C-136.45890856 498.5757584 -138.09400999 496.88133975 -139.73022461 495.18579102 C-140.88771023 494.01268887 -142.04684174 492.84120864 -143.20753479 491.67127991 C-146.259689 488.58676384 -149.2907051 485.48229239 -152.31726074 482.37268066 C-155.9770732 478.61939133 -159.65953363 474.88835418 -163.34034061 471.15567112 C-166.20917469 468.24600671 -169.07403477 465.33281509 -171.92662048 462.4072113 C-176.81650188 457.40382806 -181.71177936 452.48012381 -187.07484436 447.97486877 C-191.1343278 444.44839715 -194.20453253 441.46172838 -195.64819336 436.20532227 C-195.75327308 431.71555234 -194.37036858 429.63518673 -191.67163086 426.28344727 C-190.74314731 425.06086554 -189.81476778 423.83820481 -188.88647461 422.61547852 C-188.37971191 421.96272949 -187.87294922 421.30998047 -187.35083008 420.63745117 C-185.02163493 417.60619116 -182.77910746 414.51362609 -180.52612305 411.42553711 C-176.63744209 406.09899782 -172.74548801 400.77945605 -168.65209961 395.60766602 C-168.18739258 395.01864502 -167.72268555 394.42962402 -167.24389648 393.82275391 C-166.01355083 392.27414491 -164.77080832 390.73540732 -163.52709961 389.19750977 C-161.617612 386.36031902 -160.75453755 384.94646635 -160.73413086 381.53344727 C-161.81677165 378.9075299 -162.93752622 376.56911129 -164.29663086 374.09594727 C-165.04579407 372.66656224 -165.79183977 371.23553936 -166.53491211 369.80297852 C-166.90825684 369.08706543 -167.28160156 368.37115234 -167.66625977 367.63354492 C-178.73413086 345.86723785 -178.73413086 345.86723785 -178.73413086 337.53344727 C-179.46374023 337.48373779 -180.19334961 337.43402832 -180.94506836 337.3828125 C-189.78275643 336.74521695 -198.5769608 335.84523294 -207.3815918 334.85888672 C-209.73048631 334.59635461 -212.07992058 334.33911672 -214.42944336 334.08227539 C-218.17536685 333.66944628 -221.91812414 333.23457823 -225.65942383 332.78179932 C-227.64279687 332.54438037 -229.6278963 332.32151908 -231.61303711 332.09936523 C-233.34360352 331.87917725 -233.34360352 331.87917725 -235.10913086 331.65454102 C-236.60573242 331.47362915 -236.60573242 331.47362915 -238.13256836 331.2890625 C-241.53308621 330.30139332 -242.62164194 329.40257119 -244.73413086 326.53344727 C-245.33655296 323.40887301 -245.28040064 320.32068884 -245.25170898 317.14672852 C-245.2622229 315.72171524 -245.2622229 315.72171524 -245.27294922 314.26791382 C-245.29055748 311.12696116 -245.27889613 307.98690913 -245.26538086 304.84594727 C-245.26807495 302.66406074 -245.27195668 300.48217538 -245.27697754 298.30029297 C-245.28287644 293.72717866 -245.27429678 289.15437683 -245.25561523 284.58129883 C-245.23282576 278.71646757 -245.2459467 272.85236848 -245.26990509 266.98756409 C-245.2843523 262.48199944 -245.27976196 257.97660867 -245.26939392 253.47103882 C-245.26672367 251.30846063 -245.27000683 249.1458667 -245.27931213 246.98330688 C-245.28945973 243.96183396 -245.27400111 240.94155025 -245.25170898 237.92016602 C-245.25980591 237.02445892 -245.26790283 236.12875183 -245.27624512 235.2059021 C-245.19332639 229.14609763 -245.19332639 229.14609763 -242.82804871 225.99038696 C-240.605721 224.4441002 -239.23213705 223.90297359 -236.56616211 223.55688477 C-235.7642041 223.44465576 -234.96224609 223.33242676 -234.13598633 223.21679688 C-233.28149902 223.1150415 -232.42701172 223.01328613 -231.54663086 222.90844727 C-230.6560498 222.78928955 -229.76546875 222.67013184 -228.84790039 222.54736328 C-226.14526418 222.19106951 -223.4405964 221.85923019 -220.73413086 221.53344727 C-219.24583441 221.34737085 -217.75755209 221.16118146 -216.26928711 220.97485352 C-212.81752846 220.55140357 -209.36307305 220.15802515 -205.90649414 219.77612305 C-203.56548736 219.51460802 -201.22600543 219.2414333 -198.88647461 218.96704102 C-197.27321867 218.7806239 -195.659938 218.59442069 -194.04663086 218.40844727 C-192.93263916 218.27684204 -192.93263916 218.27684204 -191.79614258 218.14257812 C-187.75286074 217.68464758 -183.80275021 217.44374542 -179.73413086 217.53344727 C-179.64131836 216.58083008 -179.54850586 215.62821289 -179.45288086 214.64672852 C-178.74590136 209.75310478 -177.01240293 205.31364994 -175.23413086 200.72094727 C-174.71314819 199.35292969 -174.71314819 199.35292969 -174.18164062 197.95727539 C-171.39777819 190.82366653 -168.14564563 184.00876326 -164.44116211 177.30761719 C-162.27149273 173.2834899 -162.27149273 173.2834899 -161.77319336 168.81079102 C-162.90478611 166.1290082 -164.27048669 164.30311062 -166.17163086 162.09594727 C-169.43798294 158.16937509 -172.49032301 154.15091766 -175.42163086 149.97094727 C-179.93328205 143.56384746 -184.65614698 137.33374504 -189.44384766 131.13085938 C-189.97276611 130.44515869 -190.50168457 129.75945801 -191.04663086 129.05297852 C-191.51713867 128.44558838 -191.98764648 127.83819824 -192.47241211 127.21240234 C-194.32354185 124.74912463 -195.65891974 122.89278928 -196.29663086 119.84594727 C-194.71137264 110.51053776 -181.78756618 101.44210951 -175.21459961 94.88110352 C-173.90645501 93.57228432 -172.59845881 92.26331679 -171.29060364 90.95420837 C-168.56482218 88.22696042 -165.83725958 85.50151009 -163.10839844 82.77734375 C-159.60667914 79.28135525 -156.10951437 75.7808503 -152.61364269 72.27901554 C-149.9209355 69.58270331 -147.22586177 66.88876674 -144.53005409 64.19555473 C-143.23868681 62.90485512 -141.94806357 61.61341063 -140.65819359 60.32121468 C-138.86323695 58.52372882 -137.06512437 56.72946185 -135.26611328 54.93603516 C-134.73260757 54.40050522 -134.19910187 53.86497528 -133.64942932 53.31321716 C-130.29333793 49.97647601 -128.36781325 48.36857498 -123.63647461 48.08422852 C-117.7421104 48.16542459 -114.60822386 50.98936735 -110.29663086 54.72094727 C-108.73006321 56.00908006 -107.16097783 57.29415599 -105.58959961 58.57641602 C-104.79215332 59.23432129 -103.99470703 59.89222656 -103.1730957 60.57006836 C-99.26505667 63.71605934 -95.19601129 66.62586141 -91.10913086 69.53344727 C-89.67912291 70.55383166 -88.249423 71.57464792 -86.82006836 72.59594727 C-86.14427734 73.07290039 -85.46848633 73.54985352 -84.7722168 74.04125977 C-83.35454177 75.07921254 -81.96860768 76.16135226 -80.61010742 77.27563477 C-79.92142578 77.83508789 -79.23274414 78.39454102 -78.52319336 78.97094727 C-77.91427246 79.4852832 -77.30535156 79.99961914 -76.67797852 80.52954102 C-73.97558264 81.92520189 -72.59606101 81.42196489 -69.73413086 80.53344727 C-68.25100156 79.90667925 -66.79059044 79.22392955 -65.35522461 78.49438477 C-64.52571289 78.0818042 -63.69620117 77.66922363 -62.84155273 77.24414062 C-61.51994141 76.58297241 -61.51994141 76.58297241 -60.17163086 75.90844727 C-48.61226704 70.25586955 -36.44809456 64.9159311 -23.73413086 62.53344727 C-23.57332031 61.52258057 -23.41250977 60.51171387 -23.24682617 59.47021484 C-21.68798816 49.68966321 -20.10151534 39.91393461 -18.49047852 30.1418457 C-18.03178115 27.35713689 -17.58118414 24.57167418 -17.13793945 21.78442383 C-16.6689302 18.84281903 -16.17560354 15.9067236 -15.67163086 12.97094727 C-15.54626953 12.14763916 -15.4209082 11.32433105 -15.29174805 10.47607422 C-14.68328078 7.08441905 -14.06695615 4.89432026 -11.70799255 2.33656311 C-7.69620509 -0.09586929 -4.6064504 -0.03692271 0 0 Z M-1.73413086 13.53344727 C-3.19850586 21.61844727 -4.66288086 29.70344727 -6.17163086 38.03344727 C-6.63239014 40.5709668 -7.09314941 43.10848633 -7.56787109 45.72290039 C-7.93465945 47.75346855 -8.3012879 49.78406561 -8.66772461 51.81469727 C-8.85693481 52.85335937 -9.04614502 53.89202148 -9.24108887 54.9621582 C-10.0315067 59.35208969 -10.77993826 63.70296676 -11.23828125 68.14086914 C-11.73413086 71.53344727 -11.73413086 71.53344727 -13.73413086 73.53344727 C-15.61914062 74.20019531 -15.61914062 74.20019531 -17.92553711 74.79516602 C-18.77905762 75.02300781 -19.63257813 75.25084961 -20.51196289 75.4855957 C-21.43090332 75.72826172 -22.34984375 75.97092773 -23.29663086 76.22094727 C-37.91856794 80.26504825 -51.12559697 85.83008395 -64.31665039 93.33325195 C-65.06672363 93.74865234 -65.81679688 94.16405273 -66.58959961 94.59204102 C-67.24597412 94.96643311 -67.90234863 95.3408252 -68.57861328 95.7265625 C-71.48661123 96.81512669 -73.64898811 96.8569317 -76.73413086 96.53344727 C-79.12084961 95.22338867 -79.12084961 95.22338867 -81.42163086 93.38500977 C-82.27845459 92.71397217 -83.13527832 92.04293457 -84.01806641 91.3515625 C-85.36251831 90.26597046 -85.36251831 90.26597046 -86.73413086 89.15844727 C-88.6144054 87.68161201 -90.49591787 86.20635149 -92.37866211 84.73266602 C-93.29341309 84.01127441 -94.20816406 83.28988281 -95.15063477 82.54663086 C-99.56651266 79.10556782 -104.12338335 75.87825685 -108.70678711 72.66625977 C-110.71414515 71.25204365 -112.70175288 69.80934131 -114.66772461 68.33813477 C-115.9999707 67.35200195 -115.9999707 67.35200195 -117.35913086 66.34594727 C-118.11452148 65.77489258 -118.86991211 65.20383789 -119.64819336 64.61547852 C-121.60801654 63.37208057 -121.60801654 63.37208057 -123.52056885 63.64317322 C-126.74861886 64.9414649 -128.84522885 67.25236398 -131.23706055 69.69580078 C-131.77409103 70.23239319 -132.31112152 70.7689856 -132.86442566 71.32183838 C-134.63549049 73.09499111 -136.39569604 74.87852853 -138.15600586 76.66235352 C-139.38274709 77.89469067 -140.6101529 79.12636659 -141.8381958 80.35740662 C-145.06703834 83.59769809 -148.2867702 86.84689786 -151.50469971 90.09802246 C-154.79057497 93.41459737 -158.08496965 96.7226856 -161.37866211 100.03149414 C-167.83886101 106.52385806 -174.28946876 113.02566301 -180.73413086 119.53344727 C-179.80098466 120.94319199 -178.86646698 122.35202895 -177.93139648 123.76049805 C-177.41113892 124.54514435 -176.89088135 125.32979065 -176.3548584 126.13821411 C-173.75766628 129.97654013 -170.99853327 133.68969613 -168.23413086 137.40844727 C-167.63971191 138.21564209 -167.04529297 139.02283691 -166.43286133 139.85449219 C-163.23267797 144.19508165 -159.99781411 148.50437014 -156.71069336 152.77954102 C-156.06551758 153.6285498 -155.4203418 154.47755859 -154.75561523 155.35229492 C-153.51610751 156.98210078 -152.26521665 158.60332839 -151.00170898 160.21459961 C-148.51971046 163.49703551 -146.87147563 165.69942614 -146.19506836 169.80688477 C-146.77326253 172.73137412 -147.55216487 174.39904461 -149.23413086 176.84594727 C-158.50798019 191.43476214 -165.44922493 208.52323452 -169.19116211 225.37329102 C-169.73413086 227.53344727 -169.73413086 227.53344727 -170.73413086 228.53344727 C-181.62422172 230.98954471 -192.97499675 231.81155037 -204.04663086 233.09594727 C-206.88992639 233.42802332 -209.73312117 233.76093542 -212.57621765 234.0947113 C-214.33244161 234.30065955 -216.08879248 234.50552961 -217.84529114 234.7091217 C-218.6469017 234.80269455 -219.44851227 234.8962674 -220.27441406 234.99267578 C-220.96880081 235.07324722 -221.66318756 235.15381866 -222.37861633 235.23683167 C-225.50226103 235.63017322 -228.61746015 236.08820859 -231.73413086 236.53344727 C-231.73413086 263.59344727 -231.73413086 290.65344727 -231.73413086 318.53344727 C-223.15413086 319.52344727 -214.57413086 320.51344727 -205.73413086 321.53344727 C-193.85913086 323.15844727 -193.85913086 323.15844727 -188.50366211 323.91235352 C-183.64088273 324.57358403 -178.78096121 324.9879928 -173.87866211 325.22485352 C-171.73413086 325.53344727 -171.73413086 325.53344727 -168.73413086 327.53344727 C-167.84960938 329.56689453 -167.84960938 329.56689453 -167.11303711 332.09985352 C-166.82323975 333.04884521 -166.53344238 333.99783691 -166.23486328 334.97558594 C-165.92524658 336.00530518 -165.61562988 337.03502441 -165.29663086 338.09594727 C-160.82012723 352.29119011 -154.95287068 366.47462398 -147.10205078 379.17333984 C-145.28005779 382.3168712 -145.13291906 383.9441231 -145.73413086 387.53344727 C-147.25101542 390.10865869 -149.14729735 392.28703685 -151.10913086 394.53344727 C-152.22544805 395.86684896 -153.33867731 397.20284127 -154.44897461 398.54125977 C-155.00697754 399.21060547 -155.56498047 399.87995117 -156.13989258 400.56958008 C-158.45552735 403.42210169 -160.57201239 406.39515442 -162.67163086 409.40844727 C-168.4404046 417.64101791 -174.58681244 425.58167767 -180.73413086 433.53344727 C-179.11400083 437.61055136 -176.19674986 440.34258289 -173.13256836 443.36547852 C-172.29962753 444.19773201 -172.29962753 444.19773201 -171.44985962 445.04679871 C-170.27370644 446.21993516 -169.0951281 447.39064456 -167.91430664 448.55908203 C-166.13109632 450.32420461 -164.35585062 452.0970275 -162.58178711 453.87133789 C-157.43335318 459.00323616 -152.26936382 464.03171752 -146.73657227 468.75146484 C-142.20651687 472.78278334 -138.00117226 477.16514118 -133.73413086 481.47094727 C-132.759107 482.45100037 -131.78384806 483.43081967 -130.80834961 484.41040039 C-128.44796468 486.78247039 -126.08996181 489.15685587 -123.73413086 491.53344727 C-119.17130851 489.02503 -115.07775991 486.40015892 -110.98413086 483.15844727 C-104.62846243 478.17602311 -98.14219149 473.38413336 -91.62182617 468.61987305 C-90.85966797 468.06154785 -90.09750977 467.50322266 -89.31225586 466.92797852 C-88.55750977 466.37964355 -87.80276367 465.83130859 -87.02514648 465.26635742 C-85.43478367 464.06341675 -83.88299208 462.8084356 -82.36499023 461.51538086 C-76.52104006 456.58225556 -76.52104006 456.58225556 -72.64819336 456.34204102 C-68.96548219 457.84770711 -65.56205167 459.62628326 -62.10913086 461.59594727 C-48.7067256 468.95601759 -34.45026096 474.42158738 -19.73413086 478.53344727 C-18.96069336 478.75774414 -18.18725586 478.98204102 -17.39038086 479.21313477 C-15.84081357 479.66201735 -14.28803081 480.09980077 -12.73413086 480.53344727 C-11.04556464 486.86826237 -9.87299512 493.20512883 -8.82397461 499.67407227 C-8.65160782 500.71867615 -8.47924103 501.76328003 -8.301651 502.83953857 C-7.75519796 506.15367179 -7.21311735 509.46849927 -6.67163086 512.78344727 C-6.12599403 516.11257738 -5.57939727 519.44154273 -5.03089905 522.77020264 C-4.6907497 524.83553997 -4.3523349 526.90116391 -4.01585388 528.96710205 C-3.86221878 529.90197449 -3.70858368 530.83684692 -3.55029297 531.80004883 C-3.41642685 532.61975159 -3.28256073 533.43945435 -3.14463806 534.28399658 C-2.76124864 536.38485031 -2.25207781 538.46165944 -1.73413086 540.53344727 C23.34586914 540.53344727 48.42586914 540.53344727 74.26586914 540.53344727 C76.04554047 532.82153816 77.759336 525.28708332 79.01977539 517.50610352 C79.31988518 515.70727198 79.62001598 513.90844396 79.92016602 512.10961914 C80.3778182 509.33632092 80.8338167 506.56275672 81.2890625 503.7890625 C81.73695909 501.06906104 82.19065232 498.35007123 82.64477539 495.63110352 C82.77815811 494.80602798 82.91154083 493.98095245 83.04896545 493.13087463 C83.77529603 488.7920044 84.5202222 484.5997917 86.26586914 480.53344727 C89.18774414 479.13500977 89.18774414 479.13500977 93.01586914 478.15844727 C94.47684439 477.75177193 95.93641436 477.34002494 97.39477539 476.92407227 C98.18126465 476.70428711 98.96775391 476.48450195 99.77807617 476.25805664 C113.36753557 472.29990988 126.13917905 467.04792433 138.38964844 459.95092773 C141.83263264 458.01316436 144.37115395 456.59014658 148.34790039 456.33813477 C152.64262779 458.09742069 155.88960962 460.78551113 159.45336914 463.72094727 C161.04533885 464.99660967 162.63915195 466.26997436 164.23461914 467.54125977 C165.05704102 468.19900391 165.87946289 468.85674805 166.72680664 469.53442383 C170.89780694 472.81828445 175.17090706 475.95963267 179.45336914 479.09594727 C180.230271 479.66659912 181.00717285 480.23725098 181.80761719 480.82519531 C183.27229765 481.89848952 184.74047402 482.96703467 186.21264648 484.0300293 C187.56899866 485.02318229 188.90860109 486.0396726 190.22924805 487.07983398 C193.33046543 489.68880069 193.33046543 489.68880069 197.13534546 490.4708252 C200.25930309 489.0963608 202.15647134 486.99258728 204.5534668 484.57055664 C205.06777756 484.05507767 205.58208832 483.53959869 206.11198425 483.00849915 C207.80837129 481.30493093 209.49399408 479.59110203 211.17993164 477.87719727 C212.35696773 476.69202478 213.53474318 475.50758615 214.71322632 474.32385254 C217.81290033 471.20706073 220.90389649 468.08180903 223.99273682 464.95428467 C228.9418882 459.94593253 233.90378744 454.95021676 238.86622238 449.95503235 C240.60062254 448.20664195 242.33116978 446.45450765 244.06118774 444.70178223 C245.11972983 443.63321936 246.17834984 442.56473368 247.23706055 441.49633789 C248.62461044 440.09188416 248.62461044 440.09188416 250.04019165 438.65905762 C252.26586914 436.53344727 252.26586914 436.53344727 254.26586914 435.53344727 C252.48868689 431.41079774 249.7219068 428.01198834 247.01586914 424.47094727 C245.93312093 423.04050009 244.85112174 421.60948572 243.76977539 420.17797852 C243.2001709 419.42468262 242.63056641 418.67138672 242.04370117 417.89526367 C237.23186525 411.50283017 232.50037948 405.05075274 227.77807617 398.59204102 C226.47160399 396.8135177 225.15178445 395.04641129 223.82446289 393.28344727 C223.18637695 392.41719727 222.54829102 391.55094727 221.89086914 390.65844727 C221.36750977 389.95977539 220.84415039 389.26110352 220.30493164 388.54125977 C218.94060363 385.9049267 218.83455244 384.47859972 219.26586914 381.53344727 C220.76977539 378.51000977 220.76977539 378.51000977 222.82836914 375.15844727 C231.5427203 360.52593862 238.19832237 344.68169281 242.72290039 328.25610352 C243.26586914 326.53344727 243.26586914 326.53344727 244.26586914 325.53344727 C247.05822058 325.19885178 249.84108069 324.91471392 252.64086914 324.65844727 C259.29047103 324.00718792 265.85985789 323.17880251 272.45336914 322.09594727 C283.68484539 320.30749563 294.98071514 318.94409152 306.26586914 317.53344727 C306.26586914 290.80344727 306.26586914 264.07344727 306.26586914 236.53344727 C286.96086914 234.05844727 286.96086914 234.05844727 267.26586914 231.53344727 C261.32586914 230.54344727 261.32586914 230.54344727 255.26586914 229.53344727 C251.29647294 229.34987339 251.29647294 229.34987339 247.32446289 229.26782227 C245.26586914 228.53344727 245.26586914 228.53344727 243.66821289 226.06079102 C242.33365251 222.70394415 241.21956555 219.36179828 240.17285156 215.90795898 C235.57414165 200.84118977 229.03965642 184.69412818 220.26586914 171.53344727 C219.64350846 167.59743645 220.15741366 165.30345034 222.35571289 162.08813477 C223.29059661 160.85061134 224.24072121 159.62449857 225.20336914 158.40844727 C225.70626465 157.7488501 226.20916016 157.08925293 226.72729492 156.40966797 C227.75139646 155.06802688 228.78131599 153.73080588 229.81713867 152.39819336 C231.78811587 149.86123282 233.7150491 147.29229358 235.64086914 144.72094727 C236.34856445 143.7812207 237.05625977 142.84149414 237.78540039 141.87329102 C243.0439788 134.83304508 248.13810888 127.66917315 253.26586914 120.53344727 C251.97408134 117.69329419 250.61803831 115.63646339 248.41186523 113.43652344 C247.83721527 112.85879684 247.26256531 112.28107025 246.67050171 111.68583679 C246.04970734 111.07222794 245.42891296 110.45861908 244.78930664 109.82641602 C244.14522858 109.18279617 243.50115051 108.53917633 242.83755493 107.87605286 C241.47308777 106.51460429 240.10619346 105.15558452 238.73706055 103.79882812 C236.6641322 101.74400712 234.59916935 99.6814474 232.53540039 97.61743164 C231.20383699 96.29079001 229.87181965 94.96460383 228.53930664 93.63891602 C227.93065765 93.03137985 227.32200867 92.42384369 226.69491577 91.79789734 C222.94210985 88.08542808 219.06434732 84.57056382 215.07266235 81.11686707 C212.88613999 79.20066394 210.81342427 77.19465517 208.76586914 75.13110352 C208.0246582 74.38666992 207.28344727 73.64223633 206.51977539 72.87524414 C205.77598633 72.12307617 205.03219727 71.3709082 204.26586914 70.59594727 C203.1037793 69.42708984 203.1037793 69.42708984 201.91821289 68.23461914 C200.03176157 66.33652306 198.14770669 64.43611578 196.26586914 62.53344727 C189.62199844 66.53816933 183.4016725 70.858229 177.26586914 75.59594727 C176.55519287 76.14162354 175.8445166 76.6872998 175.11230469 77.24951172 C171.98290996 79.65549062 168.8586609 82.06675932 165.75708008 84.50854492 C163.23181304 86.49323345 160.6880694 88.45202832 158.14086914 90.40844727 C157.35969727 91.03372314 156.57852539 91.65899902 155.77368164 92.30322266 C152.26233725 94.97267683 150.23775958 96.4858268 145.75805664 96.70532227 C141.35720585 95.2285267 137.53888077 93.201388 133.51586914 90.90844727 C120.37150069 83.71951848 100.61782619 73.53344727 85.26586914 73.53344727 C84.99323242 71.61145508 84.99323242 71.61145508 84.71508789 69.65063477 C83.41146952 60.62423758 81.96470943 51.72664376 79.94946289 42.83032227 C79.01847338 38.34029287 78.43566561 33.82695523 77.89086914 29.27563477 C77.00382827 23.96447755 75.57185609 18.75739506 74.26586914 13.53344727 C49.18586914 13.53344727 24.10586914 13.53344727 -1.73413086 13.53344727 Z " fill="#F9F9F9" transform="translate(474.734130859375,217.466552734375)"/>
<path d="M0 0 C35.13240419 -1.79876705 70.19669709 10.98181784 96.46850586 34.19750977 C114.25014121 50.37332093 127.27986601 69.4321902 135.04492188 92.19970703 C135.2753418 92.87042236 135.50576172 93.5411377 135.74316406 94.23217773 C139.57670407 106.13669864 141.22257103 117.79256485 141.06860352 130.2265625 C141.04484528 132.26879142 141.04809933 134.30971655 141.0546875 136.35205078 C141.03041216 149.69355636 138.99396092 161.695272 134.73242188 174.32470703 C134.33724365 175.49727051 133.94206543 176.66983398 133.53491211 177.87792969 C120.83798762 214.21680171 93.76921625 239.60295741 59.73242188 256.13720703 C42.99352467 264.15365848 23.82858097 266.52912272 5.48242188 266.44970703 C4.462285 266.4464743 4.462285 266.4464743 3.42153931 266.44317627 C-33.92814841 266.25361454 -67.04844532 250.54968388 -93.26757812 224.13720703 C-100.20632148 216.7657833 -106.21131615 208.92099236 -111.26757812 200.13720703 C-111.925 199.01958984 -112.58242188 197.90197266 -113.25976562 196.75048828 C-118.66181634 187.29913283 -122.31107978 177.59609779 -125.26757812 167.13720703 C-125.47930664 166.41645996 -125.69103516 165.69571289 -125.90917969 164.953125 C-135.51965858 131.20983502 -128.08729234 96.30070257 -111.65429688 66.18017578 C-92.28353356 34.11988017 -60.8860609 12.2493207 -24.79882812 3.13720703 C-16.60117059 1.23241569 -8.3820496 0.50718259 0 0 Z M-29.26757812 18.13720703 C-30.49863281 18.48783203 -31.7296875 18.83845703 -32.99804688 19.19970703 C-64.98144565 29.60786392 -90.28165032 53.42057898 -105.51757812 82.94970703 C-118.08156628 108.26199613 -120.43069604 140.11330332 -111.75585938 167.05908203 C-105.07820905 186.42792537 -95.34447718 202.19638276 -81.26757812 217.13720703 C-80.6565625 217.81267578 -80.04554688 218.48814453 -79.41601562 219.18408203 C-66.07213233 233.37970255 -46.87120968 243.83858108 -28.26757812 249.13720703 C-27.58518066 249.33185547 -26.9027832 249.52650391 -26.19970703 249.72705078 C5.75277357 258.43166602 38.73498067 253.37421922 67.46777344 237.61669922 C96.51321727 220.9265058 115.69467305 193.94361644 124.50976562 161.96533203 C129.76105659 141.80981524 129.59385455 120.10271208 123.73242188 100.13720703 C123.29929687 98.65800781 123.29929687 98.65800781 122.85742188 97.14892578 C116.98857771 79.4637927 107.01245238 63.8621011 94.11914062 50.57519531 C92.93985532 49.35230968 91.78635003 48.10464727 90.63867188 46.85205078 C71.51981307 26.47750421 41.14763802 14.83533638 13.69335938 13.82080078 C-1.04998063 13.49154505 -15.0462897 14.08069784 -29.26757812 18.13720703 Z " fill="#F9F9F9" transform="translate(506.267578125,359.86279296875)"/>
<path d="M0 0 C0.33 0.66 0.66 1.32 1 2 C-3.16704183 6.85743929 -7.41844996 11.53019508 -12 16 C-12.99 15.67 -13.98 15.34 -15 15 C-10.05 10.05 -5.1 5.1 0 0 Z " fill="#4A4A4C" transform="translate(346,285)"/>
<path d="M0 0 C0 4.15560231 -2.2820452 5.84099329 -5 8.6875 C-5.47695313 9.19861328 -5.95390625 9.70972656 -6.4453125 10.23632812 C-7.62359915 11.49709484 -8.81095253 12.74937686 -10 14 C-10.99 13.67 -11.98 13.34 -13 13 C-8.71 8.71 -4.42 4.42 0 0 Z " fill="#474849" transform="translate(330,301)"/>
<path d="M0 0 C0 3.58912412 -0.66436554 4.10857029 -3 6.6875 C-3.556875 7.31011719 -4.11375 7.93273437 -4.6875 8.57421875 C-5.120625 9.04472656 -5.55375 9.51523437 -6 10 C-6.99 9.67 -7.98 9.34 -9 9 C-6.03 6.03 -3.06 3.06 0 0 Z " fill="#434445" transform="translate(728,671)"/>
<path d="M0 0 C0.33 0.99 0.66 1.98 1 3 C-0.65 4.65 -2.3 6.3 -4 8 C-4.99 7.67 -5.98 7.34 -7 7 C-4.69 4.69 -2.38 2.38 0 0 Z " fill="#484849" transform="translate(738,661)"/>
<path d="M0 0 C0 4.38968456 -2.12805101 5.76905739 -5 9 C-5.66 8.67 -6.32 8.34 -7 8 C-4.69 5.36 -2.38 2.72 0 0 Z " fill="#454547" transform="translate(424,410)"/>
</svg>
